<svg xmlns="http://www.w3.org/2000/svg" viewBox="0 0 32 32" shape-rendering="crispEdges"><path fill="#fff" d="M11 2h1v1h-1zM12 2h1v1h-1zM13 2h1v1h-1zM14 2h1v1h-1zM15 2h1v1h-1zM16 2h1v1h-1zM17 2h1v1h-1zM18 2h1v1h-1zM19 2h1v1h-1zM20 2h1v1h-1zM9 3h1v1h-1zM10 3h1v1h-1zM11 3h1v1h-1zM12 3h1v1h-1zM13 3h1v1h-1zM14 3h1v1h-1zM15 3h1v1h-1zM16 3h1v1h-1zM17 3h1v1h-1zM18 3h1v1h-1zM19 3h1v1h-1zM20 3h1v1h-1zM21 3h1v1h-1zM22 3h1v1h-1zM7 4h1v1h-1zM8 4h1v1h-1zM9 4h1v1h-1zM10 4h1v1h-1zM11 4h1v1h-1zM12 4h1v1h-1zM19 4h1v1h-1zM20 4h1v1h-1zM21 4h1v1h-1zM22 4h1v1h-1zM23 4h1v1h-1zM24 4h1v1h-1zM6 5h1v1h-1zM7 5h1v1h-1zM8 5h1v1h-1zM9 5h1v1h-1zM22 5h1v1h-1zM23 5h1v1h-1zM24 5h1v1h-1zM25 5h1v1h-1zM5 6h1v1h-1zM6 6h1v1h-1zM7 6h1v1h-1zM8 6h1v1h-1zM23 6h1v1h-1zM24 6h1v1h-1zM25 6h1v1h-1zM26 6h1v1h-1zM4 7h1v1h-1zM5 7h1v1h-1zM6 7h1v1h-1zM7 7h1v1h-1zM23 7h1v1h-1zM24 7h1v1h-1zM25 7h1v1h-1zM26 7h1v1h-1zM27 7h1v1h-1zM4 8h1v1h-1zM5 8h1v1h-1zM6 8h1v1h-1zM22 8h1v1h-1zM23 8h1v1h-1zM24 8h1v1h-1zM25 8h1v1h-1zM26 8h1v1h-1zM27 8h1v1h-1zM3 9h1v1h-1zM4 9h1v1h-1zM5 9h1v1h-1zM21 9h1v1h-1zM22 9h1v1h-1zM23 9h1v1h-1zM26 9h1v1h-1zM27 9h1v1h-1zM28 9h1v1h-1zM3 10h1v1h-1zM4 10h1v1h-1zM20 10h1v1h-1zM21 10h1v1h-1zM22 10h1v1h-1zM27 10h1v1h-1zM28 10h1v1h-1zM2 11h1v1h-1zM3 11h1v1h-1zM4 11h1v1h-1zM19 11h1v1h-1zM20 11h1v1h-1zM21 11h1v1h-1zM27 11h1v1h-1zM28 11h1v1h-1zM29 11h1v1h-1zM2 12h1v1h-1zM3 12h1v1h-1zM4 12h1v1h-1zM18 12h1v1h-1zM19 12h1v1h-1zM20 12h1v1h-1zM27 12h1v1h-1zM28 12h1v1h-1zM29 12h1v1h-1zM2 13h1v1h-1zM3 13h1v1h-1zM17 13h1v1h-1zM18 13h1v1h-1zM19 13h1v1h-1zM28 13h1v1h-1zM29 13h1v1h-1zM2 14h1v1h-1zM3 14h1v1h-1zM16 14h1v1h-1zM17 14h1v1h-1zM18 14h1v1h-1zM28 14h1v1h-1zM29 14h1v1h-1zM2 15h1v1h-1zM3 15h1v1h-1zM15 15h1v1h-1zM16 15h1v1h-1zM17 15h1v1h-1zM28 15h1v1h-1zM29 15h1v1h-1zM2 16h1v1h-1zM3 16h1v1h-1zM14 16h1v1h-1zM15 16h1v1h-1zM16 16h1v1h-1zM28 16h1v1h-1zM29 16h1v1h-1zM2 17h1v1h-1zM3 17h1v1h-1zM13 17h1v1h-1zM14 17h1v1h-1zM15 17h1v1h-1zM28 17h1v1h-1zM29 17h1v1h-1zM2 18h1v1h-1zM3 18h1v1h-1zM12 18h1v1h-1zM13 18h1v1h-1zM14 18h1v1h-1zM28 18h1v1h-1zM29 18h1v1h-1zM2 19h1v1h-1zM3 19h1v1h-1zM4 19h1v1h-1zM11 19h1v1h-1zM12 19h1v1h-1zM13 19h1v1h-1zM27 19h1v1h-1zM28 19h1v1h-1zM29 19h1v1h-1zM2 20h1v1h-1zM3 20h1v1h-1zM4 20h1v1h-1zM10 20h1v1h-1zM11 20h1v1h-1zM12 20h1v1h-1zM27 20h1v1h-1zM28 20h1v1h-1zM29 20h1v1h-1zM3 21h1v1h-1zM4 21h1v1h-1zM9 21h1v1h-1zM10 21h1v1h-1zM11 21h1v1h-1zM27 21h1v1h-1zM28 21h1v1h-1zM3 22h1v1h-1zM4 22h1v1h-1zM5 22h1v1h-1zM8 22h1v1h-1zM9 22h1v1h-1zM10 22h1v1h-1zM26 22h1v1h-1zM27 22h1v1h-1zM28 22h1v1h-1zM4 23h1v1h-1zM5 23h1v1h-1zM6 23h1v1h-1zM7 23h1v1h-1zM8 23h1v1h-1zM9 23h1v1h-1zM25 23h1v1h-1zM26 23h1v1h-1zM27 23h1v1h-1zM4 24h1v1h-1zM5 24h1v1h-1zM6 24h1v1h-1zM7 24h1v1h-1zM8 24h1v1h-1zM24 24h1v1h-1zM25 24h1v1h-1zM26 24h1v1h-1zM27 24h1v1h-1zM5 25h1v1h-1zM6 25h1v1h-1zM7 25h1v1h-1zM8 25h1v1h-1zM23 25h1v1h-1zM24 25h1v1h-1zM25 25h1v1h-1zM26 25h1v1h-1zM6 26h1v1h-1zM7 26h1v1h-1zM8 26h1v1h-1zM9 26h1v1h-1zM22 26h1v1h-1zM23 26h1v1h-1zM24 26h1v1h-1zM25 26h1v1h-1zM7 27h1v1h-1zM8 27h1v1h-1zM9 27h1v1h-1zM10 27h1v1h-1zM11 27h1v1h-1zM12 27h1v1h-1zM19 27h1v1h-1zM20 27h1v1h-1zM21 27h1v1h-1zM22 27h1v1h-1zM23 27h1v1h-1zM24 27h1v1h-1zM9 28h1v1h-1zM10 28h1v1h-1zM11 28h1v1h-1zM12 28h1v1h-1zM13 28h1v1h-1zM14 28h1v1h-1zM15 28h1v1h-1zM16 28h1v1h-1zM17 28h1v1h-1zM18 28h1v1h-1zM19 28h1v1h-1zM20 28h1v1h-1zM21 28h1v1h-1zM22 28h1v1h-1zM11 29h1v1h-1zM12 29h1v1h-1zM13 29h1v1h-1zM14 29h1v1h-1zM15 29h1v1h-1zM16 29h1v1h-1zM17 29h1v1h-1zM18 29h1v1h-1zM19 29h1v1h-1zM20 29h1v1h-1z"/></svg>